<?xml version="1.0" standalone="no"?>
<!DOCTYPE svg PUBLIC "-//W3C//DTD SVG 20010904//EN"
 "http://www.w3.org/TR/2001/REC-SVG-20010904/DTD/svg10.dtd">
<svg version="1.0" xmlns="http://www.w3.org/2000/svg"
 width="1410.000000pt" height="1220.000000pt" viewBox="0 0 1410.000000 1220.000000"
 preserveAspectRatio="xMidYMid meet">

<g transform="translate(0.000000,1220.000000) scale(0.100000,-0.100000)"
fill="#000000" stroke="none">
<path d="M8430 7550 c-118 -15 -195 -53 -328 -163 -204 -169 -321 -440 -347
-802 -8 -112 16 -356 51 -515 45 -204 138 -450 171 -450 6 0 23 -20 37 -44 27
-47 32 -61 17 -51 -30 18 78 -145 115 -175 18 -15 18 -14 0 14 -13 20 -15 31
-8 34 7 2 12 13 12 25 0 21 1 21 20 -3 17 -22 77 -39 64 -18 -9 14 13 9 25 -6
7 -8 25 -18 42 -21 17 -4 33 -17 41 -33 7 -15 28 -34 45 -42 21 -10 36 -26 43
-47 6 -17 17 -37 25 -43 8 -7 13 -16 10 -20 -8 -12 23 -33 36 -24 8 4 9 3 5
-4 -8 -13 39 -46 53 -38 10 7 24 -10 27 -31 3 -21 -13 -15 -50 17 -18 17 -49
36 -68 44 -32 14 -35 13 -47 -6 -11 -17 -9 -23 10 -44 12 -13 17 -24 11 -24
-29 0 -6 -25 72 -75 88 -58 110 -66 99 -39 -5 14 -2 16 23 10 16 -4 53 -12 83
-17 78 -12 121 -45 89 -66 -19 -12 66 -19 142 -12 35 4 66 12 68 18 2 6 8 9
13 5 5 -3 10 0 10 5 1 6 2 15 3 21 0 5 7 15 14 22 30 30 14 38 -85 39 -153 2
-176 12 -64 27 71 10 110 21 160 47 37 19 71 35 75 35 14 0 135 100 169 141
48 56 87 140 108 238 l19 86 -5 -90 c-2 -49 -14 -121 -25 -160 -12 -38 -24
-81 -27 -94 -3 -13 -12 -31 -19 -40 -7 -9 -31 -40 -54 -69 -23 -29 -57 -60
-76 -69 -19 -9 -34 -20 -34 -24 0 -5 17 -13 37 -18 36 -10 39 -9 93 38 137
119 197 244 222 466 l12 100 -27 29 c-15 16 -27 32 -27 36 0 4 -12 12 -26 18
-21 10 -23 14 -12 26 9 8 13 34 12 70 -1 31 3 56 8 56 5 0 6 5 3 10 -3 6 1 10
9 10 17 0 22 15 8 24 -5 3 -15 -5 -22 -18 -23 -43 -89 -39 -75 5 8 25 -19 85
-44 99 -18 9 -29 5 -76 -31 -30 -23 -57 -51 -60 -63 -2 -11 -6 -100 -8 -196
-5 -188 -19 -262 -68 -350 -37 -69 -78 -85 -222 -87 -65 -1 -130 -4 -144 -8
-24 -6 -53 8 -53 26 0 4 18 14 41 20 32 10 42 10 48 1 5 -9 12 -7 25 7 16 18
15 19 -18 39 -63 37 -165 123 -172 144 -4 12 -24 50 -45 84 -40 66 -94 178
-124 256 -10 26 -24 53 -31 59 -8 6 -14 19 -14 28 0 13 -2 14 -9 2 -6 -9 -6
-23 1 -35 6 -13 -2 -9 -22 12 -17 17 -34 32 -39 32 -15 0 -31 -25 -31 -48 0
-18 -3 -22 -12 -15 -14 11 -78 34 -78 29 0 -2 13 -36 29 -75 16 -39 26 -71 22
-71 -4 0 -30 24 -58 53 -41 42 -52 60 -56 95 -3 24 -17 60 -31 81 -37 52 -33
63 4 12 32 -44 61 -63 68 -43 2 7 10 12 18 12 8 0 11 6 7 17 -5 12 -2 15 10
10 9 -3 17 -2 17 3 0 6 7 10 15 10 8 0 15 7 15 15 0 9 6 12 15 9 9 -4 15 0 15
9 0 29 21 29 51 1 l29 -28 -6 34 c-4 19 -17 82 -29 140 -13 58 -31 157 -40
220 -27 173 -37 211 -65 229 -20 14 -23 14 -16 1 7 -12 6 -13 -5 -2 -17 16
-39 15 -39 -2 0 -7 -7 -19 -15 -26 -8 -7 -16 -27 -16 -44 -1 -23 -3 -25 -6 -8
-5 26 -18 29 -20 5 -9 -119 -8 -160 1 -172 9 -12 7 -13 -8 -8 -18 7 -19 3 -14
-78 3 -47 5 -85 3 -85 -1 0 -12 28 -25 63 -33 92 -57 127 -86 127 -14 0 -23 4
-20 9 3 5 0 11 -8 14 -8 3 -21 20 -30 38 -16 32 -16 32 4 14 27 -24 25 -10 -9
77 -36 92 -44 125 -31 133 5 3 10 22 10 41 0 40 16 77 30 69 5 -3 14 13 21 35
7 22 14 40 16 40 2 0 17 -10 33 -22 23 -17 33 -19 42 -10 9 9 18 4 39 -20 l27
-33 7 115 c9 156 29 252 70 336 50 104 58 109 174 110 66 1 100 -3 108 -11 9
-10 2 -16 -34 -26 -64 -18 -186 -117 -223 -182 -16 -28 -27 -54 -24 -59 3 -4
1 -8 -5 -8 -12 0 -38 -115 -47 -210 -5 -61 -3 -78 9 -88 12 -10 18 -10 30 2
12 13 17 13 35 1 30 -22 39 -3 45 105 10 149 43 290 68 290 5 0 9 6 9 13 0 40
140 50 230 17 66 -24 77 -25 96 -5 9 8 25 15 36 15 20 0 21 9 4 51 -4 10 -1
23 8 32 22 21 20 38 -8 80 l-24 35 30 6 c46 9 86 7 93 -4 4 -6 19 -9 33 -8 15
1 34 -2 41 -7 9 -5 12 -4 8 2 -8 13 142 -39 183 -64 39 -23 49 -10 19 24 -24
26 -10 23 23 -5 9 -7 22 -11 27 -7 13 8 14 52 2 59 -14 9 -42 -5 -35 -16 4 -6
1 -9 -7 -6 -8 3 -15 10 -15 16 -1 7 -2 18 -3 25 -1 9 -17 13 -48 14 -45 1
-255 64 -279 84 -16 13 -136 49 -146 43 -4 -3 -16 -1 -25 4 -26 14 -140 20
-203 12z m205 -110 c-4 -12 -1 -27 5 -35 7 -9 8 -15 2 -15 -18 0 -34 29 -27
50 3 11 11 20 16 20 6 0 7 -9 4 -20z m-255 -5 c-7 -8 -24 -15 -39 -14 -24 0
-24 1 9 14 45 17 44 17 30 0z m-206 -207 c-4 -7 -13 -20 -19 -28 -22 -27 -55
-130 -55 -173 0 -23 -3 -52 -6 -64 -12 -43 -24 -23 -24 37 0 72 30 158 72 206
30 34 45 44 32 22z m-244 -649 c0 -9 -9 -24 -20 -34 -13 -12 -20 -31 -20 -55
0 -42 14 -60 47 -60 23 0 23 -3 20 -59 -2 -32 -8 -65 -13 -72 -5 -8 -8 -23 -7
-34 2 -14 1 -15 -4 -5 -3 8 -19 34 -36 57 -22 31 -29 52 -29 84 1 24 -5 50
-11 58 -9 11 -9 15 1 18 7 3 12 21 12 42 0 25 7 44 20 56 11 10 20 25 20 34 0
14 2 14 10 1 5 -8 10 -22 10 -31z m137 -351 c-3 -8 -6 -5 -6 6 -1 11 2 17 5
13 3 -3 4 -12 1 -19z m1345 -495 c18 -32 34 -61 36 -65 2 -4 -11 -11 -29 -15
-29 -8 -35 -16 -55 -73 -25 -71 -28 -64 -25 50 2 50 26 160 35 160 2 0 19 -26
38 -57z m-932 -116 c0 -5 -4 -5 -10 -2 -5 3 -10 14 -10 23 0 15 2 15 10 2 5
-8 10 -19 10 -23z m-210 -42 c0 -8 -4 -15 -10 -15 -5 0 -10 7 -10 15 0 8 5 15
10 15 6 0 10 -7 10 -15z m260 -59 c0 -18 -17 8 -24 34 l-7 25 15 -25 c9 -14
15 -29 16 -34z m-236 -25 c-3 -3 -15 6 -27 18 l-22 24 27 -19 c14 -10 24 -21
22 -23z m1044 -61 c-3 -40 -12 -69 -29 -94 -48 -71 -55 -25 -9 61 17 31 30 70
31 87 0 17 3 25 6 18 3 -8 3 -40 1 -72z m-636 -25 c10 -18 8 -18 -14 3 -13 12
-27 20 -30 17 -2 -3 -15 7 -29 21 l-24 26 43 -24 c24 -12 49 -32 54 -43z
m-170 -49 c10 -19 10 -20 -6 -7 -9 8 -22 24 -28 35 -10 19 -10 20 6 7 9 -8 22
-24 28 -35z m43 -46 c10 -11 16 -20 13 -20 -3 0 -13 9 -23 20 -10 11 -16 20
-13 20 3 0 13 -9 23 -20z m-85 -130 c0 -5 -2 -10 -4 -10 -3 0 -8 5 -11 10 -3
6 -1 10 4 10 6 0 11 -4 11 -10z m332 -33 c4 -7 2 -15 -4 -18 -15 -9 -81 14
-86 30 -6 17 79 4 90 -12z m-26 -102 c19 -14 18 -14 -3 -15 -13 0 -23 -4 -23
-10 0 -16 -20 -12 -48 11 l-27 21 39 -7 c28 -6 37 -5 32 4 -10 16 7 14 30 -4z"/>
<path d="M6435 7510 c-49 -4 -117 -15 -149 -24 -84 -23 -196 -77 -196 -94 0
-8 -6 -12 -15 -8 -8 3 -15 1 -15 -4 0 -6 -7 -10 -15 -10 -17 0 -110 -61 -136
-89 -15 -16 -15 -19 1 -39 10 -12 21 -22 25 -22 4 0 34 16 66 35 33 19 62 35
64 35 2 0 -21 -24 -51 -54 -30 -30 -54 -62 -54 -70 0 -9 -9 -16 -20 -16 -13 0
-22 -9 -26 -25 -11 -44 -44 -25 -44 25 0 10 12 28 26 39 24 19 25 21 8 45 -9
14 -19 26 -21 26 -3 0 -22 -13 -42 -29 -20 -15 -46 -33 -58 -40 -13 -6 -23
-17 -23 -23 0 -6 31 -44 69 -84 64 -66 91 -115 91 -161 0 -7 4 -13 8 -13 4 0
13 -18 19 -40 5 -22 7 -40 2 -40 -4 0 -6 -17 -3 -37 23 -189 37 -287 44 -312
10 -34 5 -41 -26 -41 -38 0 -102 -66 -110 -113 -3 -22 -12 -54 -20 -71 -11
-27 -13 -28 -14 -8 0 12 -9 31 -19 41 -11 11 -16 22 -13 26 4 3 -1 3 -11 -1
-13 -5 -17 -1 -17 20 0 16 6 26 15 26 19 0 19 17 0 54 -9 16 -15 37 -14 45 3
32 -1 64 -8 58 -3 -4 -12 -2 -20 5 -11 9 -12 2 -7 -41 4 -34 2 -51 -5 -51 -6
0 -13 11 -17 24 -7 29 -47 71 -44 46 1 -8 2 -24 1 -34 -1 -17 -3 -17 -23 6
-13 14 -35 28 -50 32 -23 5 -26 3 -23 -19 3 -29 4 -28 -29 -15 -25 9 -26 8
-26 -25 0 -37 -15 -48 -24 -17 -14 50 -15 90 -1 96 8 3 17 1 20 -4 15 -24 21
-6 13 38 -5 26 -10 57 -11 69 -1 12 -5 24 -8 27 -11 11 3 66 18 66 8 0 11 5 7
12 -5 7 -2 9 9 5 11 -4 17 1 19 16 2 16 9 21 23 19 17 -3 69 -24 99 -40 36
-20 -70 208 -160 345 -68 101 -187 230 -259 277 -72 48 -82 51 -89 28 -10 -30
-36 -35 -66 -14 -37 28 -136 76 -200 98 -44 15 -83 19 -200 19 -140 0 -148 -2
-223 -33 -95 -39 -161 -81 -246 -158 -150 -136 -235 -312 -267 -549 -2 -16 -9
-64 -15 -105 -13 -88 -5 -253 16 -322 9 -31 10 -48 4 -48 -6 0 -8 -11 -5 -27
4 -16 8 -38 10 -49 3 -12 9 -39 15 -60 6 -22 11 -52 11 -67 0 -33 37 -146 54
-167 12 -15 46 -98 50 -123 1 -6 5 -18 9 -24 5 -7 6 -17 3 -22 -3 -5 5 -24 18
-43 12 -19 26 -46 29 -60 8 -30 104 -179 124 -191 7 -5 11 -12 9 -16 -3 -4 13
-25 34 -46 22 -22 40 -35 40 -31 0 5 7 3 15 -4 8 -7 12 -17 8 -23 -3 -5 -1 -7
4 -4 6 4 27 -14 48 -38 20 -25 53 -52 72 -60 41 -17 57 -19 48 -5 -10 16 81
12 94 -4 7 -8 22 -17 35 -20 42 -10 70 -76 32 -76 -7 0 -12 -16 -13 -44 -1
-41 1 -47 33 -65 19 -11 34 -16 34 -11 0 14 37 12 94 -5 56 -17 89 -42 82 -62
-8 -19 48 -31 144 -29 84 2 150 20 150 42 0 6 9 15 21 20 l21 10 -22 24 c-12
14 -19 19 -15 12 5 -9 -5 -11 -42 -7 -26 3 -74 8 -106 11 -60 5 -119 22 -84
23 9 1 16 6 15 13 -2 7 2 13 7 14 42 6 74 18 69 25 -3 5 0 9 7 9 7 0 9 3 6 7
-4 3 1 12 10 18 14 11 15 16 5 28 -9 11 -10 17 -2 22 8 5 8 10 0 20 -19 22
-130 40 -127 20 1 -5 -10 -9 -25 -8 -32 2 -34 -4 -11 -37 9 -14 -10 3 -41 38
-32 34 -62 60 -67 56 -17 -10 -9 16 11 36 12 12 15 22 9 26 -6 3 -8 13 -5 21
4 9 -15 44 -45 86 -59 81 -116 185 -149 272 -13 33 -26 69 -31 80 -36 89 -89
321 -124 547 -14 92 -28 175 -31 183 -7 16 -29 24 -84 28 -32 2 -35 0 -35 -25
1 -14 -3 -24 -7 -22 -4 3 -8 13 -8 22 0 39 -34 -35 -38 -83 -2 -27 -6 -83 -9
-123 l-5 -74 -17 33 c-10 18 -24 33 -33 35 -13 2 -14 -3 -4 -28 9 -23 8 -31
-4 -38 -12 -8 -13 -11 -1 -19 8 -5 9 -11 3 -15 -10 -6 -20 13 -23 39 0 6 -6
17 -13 25 -34 39 -46 84 -37 145 6 42 5 64 -3 74 -8 11 -8 13 2 7 13 -8 17 6
4 18 -4 4 -7 40 -8 79 0 40 -4 86 -8 104 -7 28 -5 31 13 26 19 -5 21 -1 21 36
0 46 8 51 35 21 10 -11 23 -19 29 -18 6 1 27 -13 46 -32 l35 -35 2 60 c5 111
23 270 37 315 35 113 76 176 125 190 53 14 184 12 215 -3 29 -16 24 -27 -11
-27 -13 0 -40 -7 -60 -15 -51 -21 -167 -117 -193 -160 -21 -34 -22 -37 -5 -55
23 -25 35 -25 35 -2 0 11 9 29 20 42 11 13 20 20 20 16 0 -4 16 9 35 29 l34
37 96 -3 c77 -3 98 -1 105 11 8 12 10 11 10 -6 0 -17 16 -29 73 -54 39 -19 75
-33 79 -32 28 7 106 -150 152 -303 15 -49 30 -97 33 -105 3 -8 8 -26 10 -40 2
-14 9 -41 15 -60 7 -19 11 -38 10 -43 -1 -4 10 -64 24 -135 14 -70 28 -143 31
-162 3 -19 10 -41 15 -47 6 -7 6 -13 1 -13 -5 0 -6 -34 -1 -82 22 -243 27
-371 18 -471 -10 -98 -48 -256 -69 -281 -14 -16 63 -101 81 -90 10 6 10 4 -1
-9 -18 -23 -6 -67 18 -67 19 0 106 61 168 116 111 100 198 294 223 494 14 116
14 114 -24 133 l-35 16 -7 -47 c-3 -26 -13 -63 -21 -82 -8 -19 -21 -95 -28
-167 -14 -128 -23 -157 -63 -203 -36 -41 -117 -120 -124 -120 -7 0 43 144 67
191 8 15 15 35 15 44 0 8 4 15 9 15 13 0 48 63 60 107 6 21 19 99 31 173 11
74 24 149 29 165 l8 30 27 -58 c15 -31 32 -54 37 -51 6 3 8 13 6 22 -2 10 3
30 11 46 10 22 13 51 9 110 -7 93 6 46 18 -69 6 -53 9 -65 16 -48 7 19 11 20
33 10 39 -18 30 -73 -15 -98 -13 -7 -19 -7 -15 -1 3 6 2 13 -4 17 -6 4 -11
-22 -12 -72 0 -43 -2 -82 -3 -88 -1 -5 -5 -37 -9 -70 -18 -141 -75 -307 -141
-411 -53 -82 -95 -124 -157 -155 -61 -31 -73 -42 -35 -32 12 3 43 7 68 7 35 1
55 9 85 33 99 78 178 201 236 363 31 90 69 278 75 380 4 74 -7 290 -20 375 -1
6 34 10 88 10 73 0 90 -3 90 -15 0 -8 -12 -17 -28 -20 -42 -8 -99 -57 -95 -83
3 -20 8 -22 57 -20 30 2 57 7 61 12 9 15 49 2 54 -18 2 -9 8 -32 12 -51 3 -19
11 -46 17 -60 15 -38 18 -51 22 -100 9 -127 81 -594 96 -622 6 -13 5 -16 -5
-12 -7 3 -16 -2 -20 -12 -5 -12 -2 -15 9 -10 10 3 13 2 10 -4 -8 -12 30 -76
48 -83 7 -3 24 3 36 12 17 13 23 28 23 57 0 56 15 70 45 42 28 -26 67 -33 57
-9 -4 9 -9 27 -12 41 -4 20 2 17 45 -25 27 -28 67 -56 89 -64 21 -8 53 -24 70
-37 17 -13 49 -30 71 -38 34 -12 45 -12 67 -1 17 9 47 12 92 9 50 -4 64 -2 58
7 -5 9 -1 10 17 5 13 -4 38 -10 54 -13 25 -4 28 -3 18 8 -24 24 -13 27 27 8
50 -24 74 -25 65 -1 -5 14 -4 15 6 5 19 -19 34 -16 19 3 -8 8 -9 14 -4 13 46
-8 94 22 73 47 -6 8 -20 14 -30 14 -11 0 -19 7 -19 15 0 8 5 15 11 15 6 0 9 9
6 20 -3 11 -1 23 4 26 5 3 9 14 9 25 0 12 7 19 19 19 10 0 22 7 25 15 4 12 10
14 25 5 13 -7 22 -7 26 0 11 17 23 11 29 -15 4 -14 13 -25 20 -25 8 0 28 -12
45 -26 17 -14 31 -21 31 -16 0 6 -6 13 -12 16 -7 3 -1 4 14 2 15 -1 25 0 23 4
-2 4 4 16 13 26 10 11 34 48 52 84 19 36 40 71 47 78 7 7 13 22 13 32 0 10 4
21 9 25 5 3 13 20 16 38 12 52 55 129 76 134 15 4 19 14 19 44 0 38 13 58 25
39 10 -17 25 -11 25 10 0 15 7 20 29 20 17 0 33 -4 36 -10 15 -24 22 -7 14 34
-19 100 -91 235 -163 305 l-35 34 -27 -22 -27 -21 -78 75 c-79 75 -92 84 -104
65 -3 -5 -28 -10 -56 -10 -53 0 -54 1 -40 62 8 35 8 37 -18 36 -15 -1 -39 6
-54 13 l-28 15 88 69 c67 54 94 84 119 130 35 64 46 115 28 122 -15 5 -56 -33
-74 -67 -32 -62 -204 -259 -216 -248 -6 7 73 118 93 131 6 4 21 33 33 65 11
31 25 66 30 77 5 11 21 54 35 95 14 41 35 88 46 103 22 30 25 49 14 83 -6 18
-3 21 17 17 13 -2 37 1 53 8 38 15 65 18 65 7 0 -4 4 -8 10 -8 9 0 8 8 -6 48
-4 9 -8 27 -10 38 -7 53 -93 180 -177 263 l-56 54 -31 -27 c-37 -30 -43 -31
-61 -10 -41 50 -195 130 -317 165 -79 22 -247 31 -377 19z m60 -60 c10 -11 29
-20 42 -20 13 0 34 -5 45 -11 17 -9 18 -13 7 -20 -16 -10 -67 -2 -86 13 -9 7
-24 3 -49 -11 -29 -18 -39 -19 -45 -9 -6 9 -1 14 16 16 28 4 34 29 9 39 -13 5
-13 7 -2 14 22 14 44 10 63 -11z m112 14 c-3 -3 -12 -4 -19 -1 -8 3 -5 6 6 6
11 1 17 -2 13 -5z m-1710 -50 c-3 -3 -12 -4 -19 -1 -8 3 -5 6 6 6 11 1 17 -2
13 -5z m1743 -14 c0 -5 -4 -10 -10 -10 -5 0 -10 5 -10 10 0 6 5 10 10 10 6 0
10 -4 10 -10z m272 -84 c-1 -8 5 -27 13 -40 17 -26 13 -46 -8 -46 -21 1 -58
69 -51 95 5 19 10 22 27 16 12 -5 21 -16 19 -25z m-306 -22 c8 3 14 2 14 -3 0
-4 10 -12 22 -18 18 -8 8 -11 -54 -16 -42 -4 -99 -15 -126 -25 -62 -24 -142
-79 -142 -97 0 -20 -14 -19 -31 1 -16 20 -21 46 -7 37 8 -4 9 8 5 40 l-6 46
55 20 c35 14 81 21 129 22 46 1 72 5 69 11 -3 5 8 2 26 -7 17 -9 38 -14 46
-11z m110 -107 c2 -17 -23 -39 -31 -27 -3 6 -1 10 4 10 6 0 11 10 11 22 0 21
12 18 16 -5z m-120 -12 c18 -14 35 -25 37 -25 9 0 120 -69 140 -87 14 -13 21
-15 24 -5 3 6 13 12 23 12 14 0 17 5 12 22 -8 33 12 14 48 -43 21 -35 26 -50
16 -46 -10 4 -16 1 -16 -8 0 -9 7 -12 18 -9 9 2 7 -1 -6 -7 -22 -12 -22 -12
12 -35 29 -20 35 -32 47 -91 18 -93 18 -249 0 -293 -26 -65 -30 -67 -219 -121
-53 -15 -71 -24 -63 -32 15 -15 14 -24 -4 -30 -19 -8 -67 17 -57 29 4 5 3 6
-2 2 -5 -4 -15 -3 -23 4 -7 6 -16 8 -20 4 -3 -3 -1 -6 5 -6 7 0 12 -5 12 -12
0 -6 -11 -1 -24 11 -14 13 -29 20 -34 17 -12 -7 -85 71 -77 83 3 5 16 8 30 6
23 -2 25 1 25 40 0 40 -24 201 -70 464 -11 63 -19 115 -17 116 1 1 32 12 70
24 37 13 67 27 67 32 0 14 11 11 46 -16z m-2255 -36 c-36 -49 -61 -125 -61
-185 0 -24 -4 -46 -10 -49 -18 -11 -11 99 10 162 18 53 75 131 87 119 3 -2 -9
-23 -26 -47z m509 15 c0 -2 -7 -4 -15 -4 -8 0 -15 4 -15 10 0 5 7 7 15 4 8 -4
15 -8 15 -10z m1370 -24 c13 -17 16 -36 13 -62 -7 -51 -20 -48 -34 7 -6 25
-15 48 -20 51 -5 3 -9 12 -9 20 0 23 30 13 50 -16z m50 -2 c0 -6 -6 -5 -15 2
-8 7 -15 14 -15 16 0 2 7 1 15 -2 8 -4 15 -11 15 -16z m1170 -84 c12 -12 9
-14 -28 -14 -45 0 -45 0 -36 24 7 19 39 13 64 -10z m-2025 -84 c3 -5 2 -10 -4
-10 -5 0 -13 5 -16 10 -3 6 -2 10 4 10 5 0 13 -4 16 -10z m726 -87 c6 -21 8
-53 4 -81 l-7 -47 -19 23 c-14 19 -18 39 -17 93 1 55 4 67 14 58 7 -6 18 -26
25 -46z m265 -20 c-7 -7 -26 7 -26 19 0 6 6 6 15 -2 9 -7 13 -15 11 -17z
m-250 -240 c17 -54 27 -72 36 -67 5 4 7 22 3 41 -6 32 -5 34 14 23 12 -6 21
-18 22 -28 1 -9 2 -50 4 -90 2 -46 9 -82 20 -98 9 -14 14 -31 12 -37 -2 -7 0
-23 5 -35 6 -18 3 -30 -12 -49 l-19 -25 -11 26 c-5 14 -14 37 -20 51 -5 14
-14 25 -20 25 -6 0 -8 -6 -4 -12 5 -9 4 -10 -3 -3 -6 6 -16 34 -22 63 -6 29
-22 77 -36 106 -30 63 -33 112 -7 119 30 8 33 7 38 -10z m-704 -151 c11 -26
15 -53 11 -92 -2 -30 -5 -74 -6 -97 -1 -41 -16 -39 -17 2 0 11 -11 38 -25 60
-29 47 -32 96 -8 136 10 16 20 29 23 29 3 0 12 -17 22 -38z m-1345 -22 c21 0
33 -32 33 -89 0 -15 5 -32 11 -38 6 -6 12 -34 14 -62 2 -27 9 -59 14 -70 15
-27 14 -86 -2 -99 -10 -8 -18 0 -36 34 -13 24 -29 44 -36 44 -6 0 -21 14 -34
30 -22 31 -25 47 -37 215 l-6 90 29 -27 c16 -16 38 -28 50 -28z m2317 17 c3
-12 3 -24 0 -27 -7 -7 -34 30 -34 47 0 20 27 4 34 -20z m-2037 -9 c-3 -8 -6
-5 -6 6 -1 11 2 17 5 13 3 -3 4 -12 1 -19z m2520 -72 c-12 -19 -34 -41 -49
-51 -16 -9 -28 -23 -28 -31 0 -20 -38 -17 -49 4 -9 16 0 26 57 65 81 56 99 59
69 13z m-821 -63 c-8 -8 -36 5 -36 17 0 7 6 7 21 0 11 -7 18 -14 15 -17z m300
-4 c16 -18 16 -19 -2 -19 -10 0 -27 11 -36 24 -17 23 -17 24 2 19 10 -3 26
-14 36 -24z m177 12 c15 -8 27 -18 27 -22 0 -5 -16 1 -35 12 -19 12 -35 23
-35 26 0 2 3 3 8 1 4 -2 19 -10 35 -17z m-241 -8 c18 -16 24 -33 11 -33 -10 1
-46 50 -37 50 4 0 16 -7 26 -17z m773 -33 c9 -10 15 -26 12 -35 -7 -17 -45
-20 -67 -4 -11 8 -8 9 15 4 l30 -7 -23 24 c-22 24 -21 38 3 38 7 0 20 -9 30
-20z m-891 -79 c-8 -9 -15 8 -19 45 l-5 39 14 -40 c7 -22 12 -42 10 -44z m571
23 c11 -4 25 -6 31 -6 6 1 19 -7 29 -18 12 -13 14 -20 5 -20 -7 0 -10 -7 -6
-16 5 -13 3 -14 -6 -7 -7 6 -23 14 -35 17 -31 10 -30 -12 0 -23 25 -10 57 -51
57 -74 0 -8 19 -22 43 -31 23 -10 61 -27 84 -38 45 -21 89 -17 79 8 -7 20 8
18 26 -3 30 -35 50 -85 39 -96 -8 -8 -5 -17 10 -33 41 -44 88 -308 73 -412
-17 -126 -36 -151 -124 -167 -19 -4 -66 -16 -103 -27 -54 -16 -65 -23 -57 -33
25 -31 -124 -30 -160 0 -8 7 -24 15 -36 19 -24 7 -93 98 -73 96 34 -5 39 1 39
46 0 25 -23 181 -51 346 -27 165 -48 306 -45 314 4 9 22 14 56 14 38 0 50 4
50 15 0 8 5 15 12 15 6 0 4 8 -6 19 -16 18 -16 19 1 17 12 -1 19 7 21 23 l4
24 -98 -7 c-82 -6 -102 -11 -130 -32 -36 -28 -38 -26 -48 29 l-7 37 84 0 c47
0 99 3 117 7 24 4 31 3 26 -5 -5 -8 2 -12 19 -12 22 0 25 3 20 20 -6 18 -4 19
17 11 13 -5 32 -13 43 -17z m431 -3 c19 -15 21 -20 9 -25 -15 -5 -45 18 -45
35 0 14 9 11 36 -10z m-1737 -110 l1 -44 -20 26 c-23 29 -25 49 -8 80 11 21
11 21 19 2 4 -11 8 -40 8 -64z m833 24 c3 3 11 -1 18 -10 17 -21 30 -19 30 5
0 29 27 25 67 -10 18 -16 41 -30 51 -30 9 0 26 -7 36 -15 16 -12 17 -17 6 -30
-7 -8 -19 -15 -26 -15 -8 0 -19 -9 -26 -19 -6 -10 -18 -17 -25 -14 -9 4 -16
-3 -20 -16 -7 -27 -10 -27 -43 9 -15 17 -38 30 -50 30 -21 0 -22 -3 -16 -72 6
-68 6 -71 -8 -48 -9 14 -15 42 -16 62 0 20 -7 63 -16 95 -9 32 -18 73 -19 91
l-3 34 27 -26 c15 -15 30 -24 33 -21z m1068 40 c0 -3 -7 -17 -16 -30 -13 -19
-25 -25 -53 -25 l-36 1 25 14 c14 8 33 14 44 15 15 0 16 3 6 15 -10 13 -9 15
9 15 11 0 21 -2 21 -5z m-285 -35 c10 -11 16 -20 13 -20 -3 0 -13 9 -23 20
-10 11 -16 20 -13 20 3 0 13 -9 23 -20z m139 5 c19 -14 18 -15 -16 -15 l-37 0
15 -27 c7 -16 14 -35 14 -43 0 -9 7 -26 16 -38 9 -13 13 -26 10 -29 -3 -3 -13
9 -23 27 -10 18 -33 53 -52 78 -22 29 -27 43 -16 38 9 -3 26 1 38 9 26 18 27
18 51 0z m-1104 -75 c0 -15 -5 -12 -26 11 -19 22 -19 22 4 10 12 -6 22 -16 22
-21z m100 -11 c0 -18 -4 -28 -10 -24 -5 3 -10 20 -10 36 0 18 4 28 10 24 6 -3
10 -20 10 -36z m1100 6 c0 -8 -2 -15 -4 -15 -2 0 -11 -3 -20 -6 -10 -4 -16 -1
-16 9 0 14 13 24 33 26 4 1 7 -6 7 -14z m-2926 -90 c3 -8 13 -15 21 -15 9 0
14 -4 11 -9 -3 -4 6 -6 19 -3 14 2 25 9 25 14 0 5 10 2 22 -6 15 -11 26 -12
39 -5 15 8 22 3 39 -33 23 -47 24 -51 11 -44 -5 3 -11 -9 -14 -27 -4 -24 -1
-35 14 -46 10 -7 19 -17 19 -22 0 -12 -47 -11 -55 1 -3 6 -10 10 -15 10 -9 0
-7 -32 5 -69 5 -16 4 -21 -4 -17 -15 10 -14 -7 1 -22 9 -9 8 -12 -5 -12 -9 0
-17 -4 -17 -10 0 -17 -22 -11 -49 13 l-25 22 17 -27 c14 -22 14 -26 3 -22 -14
5 -46 47 -46 59 0 4 5 3 11 -1 7 -4 2 6 -9 22 -12 16 -23 41 -26 56 -3 15 -8
33 -12 40 -4 7 2 5 13 -4 11 -10 22 -18 26 -18 11 0 0 69 -14 87 -9 10 -9 14
-2 10 7 -4 1 12 -12 35 -14 24 -25 46 -25 51 0 13 28 7 34 -8z m2165 -87 c-6
-11 -5 -18 4 -21 9 -3 9 -7 -2 -20 -23 -29 -49 -20 -70 23 l-19 40 23 6 c13 3
29 3 34 -1 6 -3 11 -1 11 5 0 7 5 6 14 -2 9 -9 11 -19 5 -30z m-240 -253 c0
-5 -9 1 -19 14 -11 13 -20 33 -20 45 1 17 4 14 20 -14 11 -19 19 -39 19 -45z
m-1739 -30 c13 -14 21 -25 18 -25 -2 0 -15 11 -28 25 -13 14 -21 25 -18 25 2
0 15 -11 28 -25z m46 -140 c28 -67 11 -76 -30 -15 -31 48 -32 50 -5 50 13 0
25 -11 35 -35z m1754 -66 c0 -67 -39 -39 -50 36 l-7 44 29 -20 c23 -16 28 -28
28 -60z m-1649 -16 l34 -38 -40 35 c-22 19 -42 36 -44 38 -2 1 0 2 5 2 6 0 26
-17 45 -37z m-11 -73 c0 -5 -4 -10 -9 -10 -6 0 -13 5 -16 10 -3 6 1 10 9 10 9
0 16 -4 16 -10z m213 -135 c0 -5 4 -19 9 -29 10 -18 7 -18 -33 -12 -47 8 -69
21 -69 43 0 11 12 13 48 11 26 -2 46 -7 45 -13z m0 -130 c-4 -15 -36 -12 -41
3 -3 9 3 13 19 10 13 -1 23 -7 22 -13z m87 -137 c0 -5 -9 -4 -20 2 -11 6 -18
15 -14 21 6 11 34 -7 34 -23z m70 12 c0 -5 -2 -10 -4 -10 -3 0 -8 5 -11 10 -3
6 -1 10 4 10 6 0 11 -4 11 -10z"/>
<path d="M6157 6533 c-4 -3 0 -15 10 -25 10 -11 12 -18 4 -18 -9 0 -9 -5 -1
-20 6 -11 9 -24 6 -29 -3 -5 2 -15 11 -22 14 -13 15 -11 9 21 -4 19 -7 45 -7
56 1 23 -22 48 -32 37z"/>
<path d="M6180 6391 c0 -5 7 -14 15 -21 16 -14 18 -10 9 14 -6 17 -24 22 -24
7z"/>
<path d="M7070 5986 c0 -2 8 -10 18 -17 15 -13 16 -12 3 4 -13 16 -21 21 -21
13z"/>
<path d="M7090 5946 c0 -2 8 -10 18 -17 15 -13 16 -12 3 4 -13 16 -21 21 -21
13z"/>
<path d="M9297 7358 c-33 -24 -35 -38 -4 -39 12 0 16 -3 10 -6 -7 -2 -13 -11
-13 -19 0 -17 -12 -18 -27 -3 -7 7 -12 6 -16 -5 -3 -8 -2 -18 3 -21 15 -9 12
-25 -3 -25 -17 0 -28 -23 -60 -130 -67 -225 -93 -351 -69 -336 12 7 54 -23 47
-34 -3 -4 2 -13 10 -20 12 -10 15 -7 21 17 28 128 107 448 121 488 43 132 43
134 25 144 -12 7 -25 3 -45 -11z"/>
<path d="M9148 7252 c-3 -11 -2 -37 2 -58 l7 -39 7 30 c14 57 14 64 1 75 -9 8
-14 6 -17 -8z"/>
<path d="M8877 7213 c-5 -9 -2 -16 32 -74 l14 -24 -23 20 -23 20 8 -20 c15
-39 18 -68 6 -61 -6 4 -11 1 -11 -8 0 -10 -6 -13 -17 -9 -14 5 -12 0 6 -20 24
-26 17 -39 -7 -15 -20 20 -14 -1 17 -61 62 -121 63 -123 163 -160 24 -9 30 -7
42 12 7 12 17 40 20 62 3 22 16 91 28 153 l23 114 -35 28 c-26 21 -49 30 -90
34 -30 3 -76 8 -101 12 -26 3 -49 2 -52 -3z"/>
<path d="M4422 6944 c-14 -30 -42 -183 -42 -229 0 -38 13 -51 58 -57 32 -5 36
0 33 35 -1 9 2 17 7 17 5 0 7 13 4 28 -4 27 10 120 23 153 7 18 -39 79 -59 79
-7 0 -18 -12 -24 -26z"/>
<path d="M7493 6810 c-6 -14 -14 -40 -18 -57 -7 -33 -36 -46 -50 -23 -15 24
-23 5 -29 -70 -10 -123 -71 -270 -118 -286 -22 -7 -23 -18 -3 -34 12 -10 22
-6 53 19 63 49 112 109 142 173 34 72 55 205 42 263 -9 39 -9 39 -19 15z"/>
<path d="M7775 5616 c-4 -20 -11 -36 -16 -36 -5 0 -9 -13 -9 -30 0 -33 -11
-38 -30 -15 -7 8 -16 15 -20 15 -4 0 -11 -42 -14 -92 -9 -113 -21 -168 -52
-230 -48 -95 -110 -145 -211 -169 -57 -14 -89 -16 -340 -25 -106 -4 -190 -10
-188 -14 3 -4 -5 -10 -17 -13 -18 -5 -19 -8 -8 -21 7 -9 18 -16 26 -16 7 0 19
-9 27 -21 14 -19 24 -20 114 -19 54 1 136 3 183 4 90 1 144 21 156 58 3 10 11
18 19 18 7 0 16 7 19 16 3 8 10 12 16 9 5 -3 10 -2 10 4 0 17 79 34 95 21 21
-17 129 81 176 158 60 101 81 171 86 300 4 73 2 117 -5 124 -7 7 -13 0 -17
-26z"/>
<path d="M7623 5486 c-13 -12 -34 -44 -48 -72 -34 -69 -164 -214 -192 -214 -8
0 -11 -4 -8 -10 3 -5 1 -10 -5 -10 -6 0 -8 -5 -5 -11 4 -6 1 -9 -6 -8 -18 3
-65 -17 -74 -30 -3 -6 -13 -11 -22 -11 -13 0 -13 3 -3 16 11 12 11 18 -1 29
-12 12 -17 12 -39 0 -14 -8 -32 -17 -41 -21 -20 -7 -40 -47 -30 -62 10 -17
124 14 206 56 151 78 275 214 295 324 9 46 2 52 -27 24z"/>
<path d="M6150 5165 c-10 -12 -10 -18 0 -30 10 -13 15 -13 21 -3 4 7 4 17 -1
24 -6 6 -7 14 -3 17 3 4 4 7 1 7 -3 0 -11 -7 -18 -15z"/>
<path d="M6260 4969 c0 -5 -5 -7 -12 -3 -8 5 -9 2 -5 -10 4 -10 7 -20 7 -22 0
-2 17 -4 38 -4 l37 0 -29 25 c-33 28 -36 29 -36 14z"/>
<path d="M4790 4500 c0 -20 7 -20 2125 -20 2118 0 2125 0 2125 20 0 20 -7 20
-2125 20 -2118 0 -2125 0 -2125 -20z"/>
<path d="M6005 4246 c-21 -7 -29 -17 -27 -29 4 -19 -44 -107 -58 -107 -5 0
-21 17 -34 37 -19 27 -23 40 -14 50 8 10 2 13 -33 13 l-42 0 20 -22 c53 -59
75 -106 71 -153 -3 -42 -2 -45 22 -45 24 0 25 2 22 49 -3 44 1 56 52 135 31
47 55 85 53 85 -1 -1 -16 -6 -32 -13z"/>
<path d="M8593 4245 c-25 -8 -30 -14 -22 -22 9 -9 4 -25 -21 -62 -17 -28 -36
-51 -40 -51 -13 0 -41 50 -35 61 4 5 3 9 -2 8 -20 -3 -25 2 -13 16 11 13 7 15
-24 15 -39 0 -45 -10 -20 -30 8 -8 27 -33 41 -57 19 -33 24 -54 21 -88 -3 -42
-2 -45 22 -45 24 0 25 3 22 47 -3 44 2 55 52 132 31 47 55 85 53 86 -1 1 -17
-4 -34 -10z"/>
<path d="M5137 4192 c-37 -23 -53 -82 -38 -134 22 -71 99 -94 149 -45 22 23
26 35 26 83 0 51 -3 59 -32 85 -37 33 -65 36 -105 11z m84 -24 c22 -25 25
-100 6 -138 -17 -34 -60 -39 -81 -8 -21 29 -21 116 0 146 19 28 51 28 75 0z"/>
<path d="M5141 4054 c0 -11 3 -14 6 -6 3 7 2 16 -1 19 -3 4 -6 -2 -5 -13z"/>
<path d="M5325 4100 l0 -110 35 1 c19 0 29 3 23 6 -17 6 -17 65 -1 81 10 10
10 15 -1 21 -10 7 -12 23 -9 60 5 50 4 51 -21 51 l-26 0 0 -110z"/>
<path d="M5437 4190 c3 -12 -5 -31 -21 -51 -24 -28 -25 -34 -13 -48 24 -26 48
-81 42 -91 -4 -6 7 -10 23 -10 l30 0 -34 63 c-18 34 -34 67 -34 74 0 7 16 28
37 48 l36 35 -36 0 c-30 0 -34 -3 -30 -20z"/>
<path d="M5636 4199 c10 -17 -17 -88 -31 -82 -7 2 -16 0 -19 -5 -3 -6 1 -12 9
-16 12 -4 13 -10 3 -33 -6 -15 -21 -38 -32 -50 l-19 -23 37 0 c32 0 36 2 27
14 -13 16 -5 66 11 66 6 0 16 -8 23 -17 11 -15 15 -15 30 -3 14 12 18 12 26
-1 5 -8 8 -24 6 -36 -4 -20 0 -23 30 -23 l33 0 -16 25 c-9 14 -14 28 -11 32 3
3 -1 12 -10 21 -14 14 -14 17 1 28 17 12 5 31 -13 20 -11 -7 -35 69 -27 83 5
7 -5 11 -29 11 -24 0 -34 -4 -29 -11z m22 -41 c-3 -7 1 -19 9 -26 28 -28 7
-76 -22 -52 -18 15 -20 45 -3 34 7 -4 8 -3 4 5 -7 11 1 51 11 51 2 0 3 -6 1
-12z"/>
<path d="M6155 4196 c-19 -8 -25 -15 -17 -20 19 -11 15 -64 -5 -68 -16 -3 -16
-4 0 -20 20 -19 23 -84 5 -91 -7 -3 22 -6 64 -6 57 -1 81 3 92 15 22 21 20 57
-4 79 -19 17 -19 20 -4 36 35 38 -8 90 -74 89 -15 -1 -40 -7 -57 -14z m99 -17
c25 -36 3 -69 -46 -69 -26 0 -28 3 -28 39 0 22 5 42 13 44 26 11 46 6 61 -14z
m-10 -89 c20 -7 26 -17 26 -38 0 -37 -17 -52 -57 -52 -33 0 -33 0 -33 50 0 55
10 61 64 40z"/>
<path d="M6198 4083 c6 -2 18 -2 25 0 6 3 1 5 -13 5 -14 0 -19 -2 -12 -5z"/>
<path d="M6399 4195 c-61 -33 -63 -146 -5 -194 22 -19 84 -16 107 4 47 43 43
145 -8 184 -30 24 -57 26 -94 6z m89 -35 c15 -29 10 -124 -9 -146 -15 -19 -48
-18 -71 3 -21 19 -26 120 -7 154 15 29 69 22 87 -11z"/>
<path d="M6598 4197 c-28 -22 -33 -62 -10 -85 11 -11 17 -23 14 -27 -4 -3 1
-3 10 0 26 10 86 -14 93 -36 16 -49 -67 -70 -102 -25 l-19 23 -10 -22 c-11
-22 -8 -23 39 -33 62 -12 100 -1 116 35 17 37 -12 74 -69 90 -42 12 -60 27
-60 48 0 6 5 3 11 -5 8 -12 9 -10 4 7 -4 16 -1 23 14 28 22 7 61 -10 61 -25 0
-18 18 -10 23 9 3 15 -2 20 -25 25 -45 9 -71 7 -90 -7z"/>
<path d="M6793 4195 c-14 -9 -23 -27 -23 -41 0 -30 30 -72 47 -67 6 2 28 -3
48 -11 31 -13 36 -20 33 -43 -3 -25 -7 -28 -45 -31 -33 -2 -44 1 -56 18 -15
22 -15 22 -26 2 -9 -18 -6 -20 41 -30 62 -12 94 -2 110 33 18 39 -2 71 -54 86
-24 7 -49 17 -55 22 -20 15 -15 45 8 58 18 9 27 7 50 -10 26 -19 30 -20 35 -6
9 21 5 24 -47 31 -32 4 -50 1 -66 -11z"/>
<path d="M7082 4187 c-32 -33 -44 -83 -32 -127 12 -46 38 -69 83 -77 41 -6 77
22 77 60 -1 18 -3 17 -15 -10 -12 -29 -19 -33 -50 -33 -32 0 -38 4 -51 35 -31
74 -7 164 44 165 7 0 23 -11 36 -25 l23 -25 11 24 c10 22 8 24 -26 30 -61 10
-78 7 -100 -17z"/>
<path d="M7279 4181 c-24 -25 -29 -37 -29 -80 0 -42 5 -56 29 -83 23 -26 36
-32 67 -31 57 2 84 37 84 109 0 48 -4 60 -29 85 -20 20 -39 29 -61 29 -22 0
-41 -9 -61 -29z m101 -7 c8 -8 13 -41 13 -75 0 -73 -23 -106 -68 -95 -19 5
-25 12 -21 22 3 8 2 13 -3 10 -22 -14 -27 71 -7 119 12 29 20 35 44 35 16 0
35 -7 42 -16z"/>
<path d="M7478 4198 c7 -7 12 -44 12 -98 0 -54 -5 -91 -12 -98 -9 -9 -8 -12 8
-12 18 0 19 6 16 83 -2 76 -2 80 11 52 8 -16 22 -54 31 -82 20 -60 31 -66 41
-23 4 17 10 28 15 25 4 -3 8 1 7 8 -1 32 4 48 13 42 5 -3 7 0 4 9 -3 8 -1 22
4 32 6 11 10 -5 11 -56 1 -51 -2 -76 -11 -82 -8 -5 -2 -8 17 -8 l30 0 -3 96
c-2 63 1 100 9 110 10 12 5 14 -26 14 -29 0 -36 -3 -31 -15 3 -9 -6 -46 -21
-82 l-27 -67 -23 69 c-17 51 -20 72 -12 82 9 10 3 13 -32 13 -33 0 -40 -3 -31
-12z"/>
<path d="M7748 4156 c3 -43 1 -56 -9 -56 -12 0 -12 -2 0 -9 9 -6 12 -23 10
-55 -4 -43 -3 -46 21 -46 24 0 25 2 21 51 l-3 51 45 -3 c25 -2 43 -1 41 2 -2
4 3 12 11 19 20 17 19 53 -3 73 -11 10 -45 20 -79 23 l-60 7 5 -57z m87 24
c-3 -5 0 -10 8 -10 41 0 20 -58 -23 -62 -23 -3 -25 0 -26 40 -1 38 1 42 23 42
14 0 21 -4 18 -10z"/>
<path d="M8016 4195 c10 -24 -15 -85 -32 -78 -16 6 -20 -12 -4 -22 13 -8 -15
-75 -37 -92 -15 -11 -12 -13 19 -13 31 0 35 3 31 20 -3 11 -2 32 2 47 l7 28
18 -25 c15 -20 21 -23 31 -12 18 17 24 15 38 -15 10 -21 9 -28 -1 -34 -8 -6 1
-9 25 -9 36 0 37 1 23 23 -8 12 -17 32 -21 45 -5 18 -2 22 17 23 23 1 23 1 -2
9 -14 4 -19 8 -12 9 20 2 14 21 -7 21 -21 0 -44 50 -35 75 5 12 -2 15 -30 15
-27 0 -34 -3 -30 -15z m37 -86 c1 -23 -2 -34 -12 -34 -24 0 -34 27 -21 59 13
36 31 23 33 -25z"/>
<path d="M8020 4106 c0 -8 4 -17 9 -20 5 -4 7 3 4 14 -6 23 -13 26 -13 6z"/>
<path d="M8208 4198 c15 -15 16 -161 2 -189 -9 -16 -7 -19 15 -19 23 0 24 2
15 20 -6 11 -10 51 -8 88 l3 67 45 -87 c25 -49 51 -88 58 -88 9 0 12 24 12 88
0 63 4 94 16 110 15 21 14 22 -17 22 -26 0 -29 -3 -20 -14 7 -8 11 -43 10 -85
l-2 -72 -18 30 c-38 63 -60 114 -55 127 4 10 -4 14 -31 14 -29 0 -34 -3 -25
-12z"/>
<path d="M7092 4100 c0 -14 2 -19 5 -12 2 6 2 18 0 25 -3 6 -5 1 -5 -13z"/>
<path d="M5748 4083 c7 -3 16 -2 19 1 4 3 -2 6 -13 5 -11 0 -14 -3 -6 -6z"/>
</g>
</svg>
